<?xml version="1.0" encoding="UTF-8"?>
<svg width="52px" height="4px" viewBox="0 0 52 4" version="1.1" xmlns="http://www.w3.org/2000/svg" xmlns:xlink="http://www.w3.org/1999/xlink">
    <title>Combined Shape</title>
    <g id="Page-1" stroke="none" stroke-width="1" fill="none" fill-rule="evenodd">
        <g id="Academy" transform="translate(-607, -3012)" fill="#7B7B7B">
            <g id="CONTENT" transform="translate(0, 610)">
                <path d="M609,2406 C610.104569,2406 611,2405.10457 611,2404 C611,2402.89543 610.104569,2402 609,2402 C607.895431,2402 607,2402.89543 607,2404 C607,2405.10457 607.895431,2406 609,2406 Z M633,2406 C634.104569,2406 635,2405.10457 635,2404 C635,2402.89543 634.104569,2402 633,2402 C631.895431,2402 631,2402.89543 631,2404 C631,2405.10457 631.895431,2406 633,2406 Z M657,2406 C658.104569,2406 659,2405.10457 659,2404 C659,2402.89543 658.104569,2402 657,2402 C655.895431,2402 655,2402.89543 655,2404 C655,2405.10457 655.895431,2406 657,2406 Z" id="Combined-Shape"></path>
            </g>
        </g>
    </g>
</svg>