<?xml version="1.0" encoding="UTF-8"?>
<svg width="299px" height="50px" viewBox="0 0 299 50" version="1.1" xmlns="http://www.w3.org/2000/svg" xmlns:xlink="http://www.w3.org/1999/xlink">
    <title>educademy_logo_bright</title>
    <g id="Page-1" stroke="none" stroke-width="1" fill="none" fill-rule="evenodd">
        <g id="BG---Logo-Variations" transform="translate(-1086, -411)">
            <g id="Group-2" transform="translate(50, 284)">
                <g id="Group-3" transform="translate(948, 0)">
                    <g id="educademy_logo_bright" transform="translate(88, 127.3511)">
                        <path d="M23.387038,38.4330906 L23.387038,31.8832259 L7.35263937,31.8832259 L7.35263937,21.8689699 L21.1233582,21.8689699 L21.1233582,15.8062852 L7.35263937,15.8062852 L7.35263937,6.54986474 L22.907518,6.54986474 L22.907518,0 L0,0 L0,38.4330906 L23.387038,38.4330906 Z M38.5703967,38.9744018 C40.4884765,38.9744018 42.3266364,38.5142873 44.0848762,37.5940584 C45.8431161,36.6738294 47.2372759,35.3115297 48.2673558,33.5071593 L48.4271958,35.293486 C48.5337558,36.3400209 48.9955158,37.188075 49.8124757,37.8376484 C50.6294356,38.4872217 51.6772756,38.8120084 52.9559954,38.8120084 C53.7374354,38.8120084 54.7497553,38.6857025 55.9929552,38.4330906 L55.9929552,32.2621437 C55.3891152,32.2260563 54.9628753,32.0456192 54.7142353,31.7208325 C54.4655953,31.3960459 54.3412753,30.8547347 54.3412753,30.0968991 L54.3412753,0.0394970701 L47.2017559,0.0394970701 L47.2017559,15.0484496 C46.278236,13.4245162 44.9906361,12.1073257 43.3389563,11.0968783 C41.6872764,10.0864308 39.8313566,9.5812071 37.7711967,9.5812071 C35.9596769,9.5812071 34.290237,9.96012489 32.7628772,10.7179605 C31.2355173,11.4757961 29.9212774,12.5223309 28.8201575,13.8575651 C27.7190376,15.1927992 26.8576777,16.7445578 26.2360777,18.5128408 C25.6144778,20.2811239 25.3036778,22.1937566 25.3036778,24.2507389 C25.3036778,26.3077212 25.6322378,28.2293757 26.2893577,30.0157025 C26.9464777,31.8020292 27.8611176,33.3628097 29.0332775,34.6980438 C30.2054374,36.0332779 31.6084773,37.0798128 33.2423971,37.8376484 C34.876317,38.595484 36.6523168,38.9744018 38.5703967,38.9744018 Z M40.4351965,32.8034548 C39.2985566,32.8034548 38.2595967,32.5869304 37.3183168,32.1538814 C36.3770369,31.7208325 35.5689569,31.1253903 34.894077,30.3675547 C34.2191971,29.6097191 33.6863971,28.7255776 33.2956771,27.7151301 C32.9049572,26.7046827 32.7095972,25.6040167 32.7095972,24.4131322 C32.7095972,23.2944225 32.8871972,22.2118003 33.2423971,21.1652654 C33.5975971,20.1187305 34.0948771,19.1894798 34.734237,18.3775131 C35.373597,17.5655463 36.1461569,16.9249948 37.0519168,16.4558585 C37.9576767,15.9867222 38.9433566,15.752154 40.0089566,15.752154 C40.7193565,15.752154 41.4386364,15.8965037 42.1667964,16.185203 C42.8949563,16.4739022 43.5875962,16.8618419 44.2447162,17.3490219 C44.9018361,17.8362019 45.4879161,18.4136005 46.002956,19.0812175 C46.517996,19.7488346 46.917596,20.4796046 47.2017559,21.2735276 L47.2017559,21.2735276 L47.2017559,28.0399168 C46.953116,28.7255776 46.589036,29.3571072 46.109516,29.9345058 C45.6299961,30.5119043 45.0883161,31.0171281 44.4844762,31.450177 C43.8806362,31.8832259 43.2235163,32.2170344 42.5131163,32.4516026 C41.8027164,32.6861707 41.1100765,32.8034548 40.4351965,32.8034548 Z M67.7390342,38.9744018 C70.083354,38.9744018 72.2323138,38.4872217 74.1859136,37.5128617 C76.1395134,36.5385016 77.7379133,35.0769616 78.9811132,33.1282415 L78.9811132,33.1282415 L79.1409532,35.4017483 C79.2830332,36.4482831 79.7536731,37.2692717 80.5528731,37.8647139 C81.352073,38.4601562 82.3910329,38.7578773 83.6697528,38.7578773 C84.0604728,38.7578773 84.4955927,38.7398336 84.9751127,38.7037462 C85.4546326,38.6676588 86.0495926,38.5774403 86.7599925,38.4330906 L86.7599925,38.4330906 L86.7599925,32.2621437 C86.1561526,32.2260563 85.7210326,32.0456192 85.4546326,31.7208325 C85.1882327,31.3960459 85.0550327,30.8547347 85.0550327,30.0968991 L85.0550327,30.0968991 L85.0550327,10.0683871 L77.9155133,10.0683871 L77.9155133,27.660999 C77.0985534,29.3931947 76.0418335,30.6833195 74.7453536,31.5313736 C73.4488737,32.3794278 72.1079938,32.8034548 70.7227139,32.8034548 C67.6324742,32.8034548 66.0873543,30.6201666 66.0873543,26.2535901 L66.0873543,26.2535901 L66.0873543,10.0683871 L58.9478349,10.0683871 L58.9478349,27.8233924 C58.9478349,31.5043081 59.6937549,34.2830386 61.1855947,36.1595839 C62.6774346,38.0361291 64.8619144,38.9744018 67.7390342,38.9744018 Z M104.421591,38.9744018 C107.511831,38.9744018 110.158071,38.288741 112.36031,36.9174194 C114.56255,35.5460979 116.14319,33.7778149 117.10223,31.6125703 L117.10223,31.6125703 L110.122551,29.4473258 C109.696311,30.3855984 108.941511,31.1795214 107.858151,31.8290948 C106.774791,32.4786681 105.593751,32.8034548 104.315031,32.8034548 C103.320471,32.8034548 102.379191,32.5959522 101.491191,32.180947 C100.603191,31.7659418 99.8306314,31.1795214 99.1735115,30.4216858 C98.5163915,29.6638502 97.9924716,28.761665 97.6017516,27.7151301 C97.2110316,26.6685953 97.0156716,25.5137982 97.0156716,24.2507389 C97.0156716,22.9876796 97.2021516,21.8328825 97.5751116,20.7863476 C97.9480716,19.7398127 98.4631115,18.8466494 99.1202315,18.1068575 C99.7773514,17.3670656 100.549911,16.7896671 101.437911,16.3746618 C102.325911,15.9596566 103.284951,15.752154 104.315031,15.752154 C105.522711,15.752154 106.623831,16.0318315 107.618391,16.5911863 C108.612951,17.1505411 109.412151,17.953486 110.015991,19.0000209 L110.015991,19.0000209 L116.99567,16.8347763 C115.93007,14.6695318 114.32279,12.9192924 112.17383,11.5840583 C110.024871,10.2488242 107.423031,9.5812071 104.368311,9.5812071 C102.095031,9.5812071 100.052631,9.9781686 98.2411115,10.7720916 C96.4295917,11.5660146 94.8844718,12.6305932 93.6057519,13.9658273 C92.3270321,15.3010614 91.3502321,16.85282 90.6753522,18.6211031 C90.0004723,20.3893861 89.6630323,22.2659314 89.6630323,24.2507389 C89.6630323,26.199459 90.0093523,28.0669824 90.7019922,29.8533091 C91.3946321,31.6396359 92.380312,33.2094382 93.6590319,34.562716 C94.9377518,35.9159938 96.4828717,36.9895943 98.2943915,37.7835173 C100.105911,38.5774403 102.148311,38.9744018 104.421591,38.9744018 Z M130.530229,38.9744018 C132.554869,38.9744018 134.455188,38.5413528 136.231188,37.675255 C138.007188,36.8091572 139.516788,35.5460979 140.759988,33.8860771 L140.759988,33.8860771 L140.919828,35.4558794 C141.097428,36.4663268 141.550308,37.2782935 142.278468,37.8917795 C143.006628,38.5052654 144.045588,38.8120084 145.395347,38.8120084 C146.283347,38.8120084 147.331187,38.6857025 148.538867,38.4330906 L148.538867,38.4330906 L148.538867,32.2621437 C147.935027,32.2260563 147.499907,32.0456192 147.233507,31.7208325 C146.967107,31.3960459 146.833907,30.8547347 146.833907,30.0968991 L146.833907,30.0968991 L146.833907,21.2735276 C146.833907,17.4843497 145.723907,14.5883351 143.503908,12.5854839 C141.283908,10.5826327 138.167028,9.5812071 134.153268,9.5812071 C129.997429,9.5812071 126.125749,10.7901353 122.538229,13.2079917 L122.538229,13.2079917 L124.722709,17.8091364 C126.214549,16.7626015 127.670869,15.9686785 129.091669,15.4273674 C130.512469,14.8860562 131.968789,14.6154007 133.460629,14.6154007 C135.520788,14.6154007 137.074788,15.1206244 138.122628,16.1310718 C139.170468,17.1415193 139.694388,18.5850157 139.694388,20.4615609 L139.694388,20.4615609 L139.694388,22.0854943 C138.770868,21.6885328 137.714148,21.3817899 136.524228,21.1652654 C135.334308,20.9487409 134.117748,20.8404787 132.874549,20.8404787 C131.134069,20.8404787 129.535669,21.066025 128.079349,21.5171176 C126.623029,21.9682102 125.370949,22.5907181 124.323109,23.3846411 C123.275269,24.1785641 122.458309,25.1439022 121.87223,26.2806556 C121.28615,27.417409 120.99311,28.6534028 120.99311,29.9886369 C120.99311,31.2877836 121.23287,32.4786681 121.71239,33.5612904 C122.191909,34.6439127 122.857909,35.5912072 123.710389,36.4031739 C124.562869,37.2151406 125.575189,37.8466702 126.747349,38.2977628 C127.919509,38.7488554 129.180469,38.9744018 130.530229,38.9744018 Z M132.554869,33.6695526 C131.205109,33.6695526 130.068469,33.2635693 129.144949,32.4516026 C128.221429,31.6396359 127.759669,30.6201666 127.759669,29.3931947 C127.759669,28.0940479 128.345749,27.0204475 129.517909,26.1723934 C130.690069,25.3243393 132.199669,24.9003122 134.046708,24.9003122 C134.970228,24.9003122 135.929268,24.9995526 136.923828,25.1980334 C137.918388,25.3965141 138.841908,25.6581478 139.694388,25.9829345 L139.694388,25.9829345 L139.694388,29.2308013 C139.694388,29.9886369 139.303668,30.6742977 138.522228,31.2877836 C137.918388,32.0095318 137.074788,32.5869304 135.991428,33.0199793 C134.908068,33.4530282 133.762548,33.6695526 132.554869,33.6695526 Z M165.055666,38.9744018 C166.973746,38.9744018 168.811905,38.5142873 170.570145,37.5940584 C172.328385,36.6738294 173.722545,35.3115297 174.752625,33.5071593 L174.912465,35.293486 C175.019025,36.3400209 175.480785,37.188075 176.297745,37.8376484 C177.114705,38.4872217 178.162545,38.8120084 179.441265,38.8120084 C180.222704,38.8120084 181.235024,38.6857025 182.478224,38.4330906 L182.478224,32.2621437 C181.874384,32.2260563 181.448144,32.0456192 181.199504,31.7208325 C180.950864,31.3960459 180.826544,30.8547347 180.826544,30.0968991 L180.826544,0.0495754873 L173.687025,0.0495754873 L173.687025,15.0484496 C172.763505,13.4245162 171.475905,12.1073257 169.824225,11.0968783 C168.172546,10.0864308 166.316626,9.5812071 164.256466,9.5812071 C162.444946,9.5812071 160.775506,9.96012489 159.248146,10.7179605 C157.720786,11.4757961 156.406547,12.5223309 155.305427,13.8575651 C154.204307,15.1927992 153.342947,16.7445578 152.721347,18.5128408 C152.099747,20.2811239 151.788947,22.1937566 151.788947,24.2507389 C151.788947,26.3077212 152.117507,28.2293757 152.774627,30.0157025 C153.431747,31.8020292 154.346387,33.3628097 155.518547,34.6980438 C156.690707,36.0332779 158.093746,37.0798128 159.727666,37.8376484 C161.361586,38.595484 163.137586,38.9744018 165.055666,38.9744018 Z M166.920466,32.8034548 C165.783826,32.8034548 164.744866,32.5869304 163.803586,32.1538814 C162.862306,31.7208325 162.054226,31.1253903 161.379346,30.3675547 C160.704466,29.6097191 160.171666,28.7255776 159.780946,27.7151301 C159.390226,26.7046827 159.194866,25.6040167 159.194866,24.4131322 C159.194866,23.2944225 159.372466,22.2118003 159.727666,21.1652654 C160.082866,20.1187305 160.580146,19.1894798 161.219506,18.3775131 C161.858866,17.5655463 162.631426,16.9249948 163.537186,16.4558585 C164.442946,15.9867222 165.428626,15.752154 166.494226,15.752154 C167.204626,15.752154 167.923906,15.8965037 168.652065,16.185203 C169.380225,16.4739022 170.072865,16.8618419 170.729985,17.3490219 C171.387105,17.8362019 171.973185,18.4136005 172.488225,19.0812175 C173.003265,19.7488346 173.402865,20.4796046 173.687025,21.2735276 L173.687025,21.2735276 L173.687025,28.0399168 C173.438385,28.7255776 173.074305,29.3571072 172.594785,29.9345058 C172.115265,30.5119043 171.573585,31.0171281 170.969745,31.450177 C170.365905,31.8832259 169.708785,32.2170344 168.998385,32.4516026 C168.287986,32.6861707 167.595346,32.8034548 166.920466,32.8034548 Z M200.086543,38.9744018 C203.212303,38.9744018 205.902942,38.2797191 208.158462,36.8903539 C210.413982,35.5009886 212.056782,33.7236837 213.086862,31.5584392 L213.086862,31.5584392 L206.959662,29.8262436 C206.497902,30.9810407 205.636542,31.9102914 204.375582,32.6139959 C203.114623,33.3177004 201.773743,33.6695526 200.352943,33.6695526 C199.429423,33.6695526 198.541423,33.5071593 197.688943,33.1823726 C196.836463,32.8575859 196.072783,32.3884496 195.397903,31.7749637 C194.723023,31.1614777 194.172463,30.4216858 193.746223,29.555588 C193.319983,28.6894902 193.053583,27.6970864 192.947023,26.5783768 L192.947023,26.5783768 L214.525422,26.5783768 C214.596462,26.2896775 214.640862,25.9288034 214.658622,25.4957545 C214.676382,25.0627056 214.685262,24.611613 214.685262,24.1424766 C214.685262,22.229844 214.356702,20.3893861 213.699582,18.6211031 C213.042462,16.85282 212.083422,15.3010614 210.822462,13.9658273 C209.561502,12.6305932 208.034142,11.5660146 206.240382,10.7720916 C204.446622,9.9781686 202.413103,9.5812071 200.139823,9.5812071 C197.866543,9.5812071 195.815263,9.9781686 193.985983,10.7720916 C192.156703,11.5660146 190.602704,12.639615 189.323984,13.9928929 C188.045264,15.3461707 187.068464,16.915973 186.393584,18.7022997 C185.718704,20.4886265 185.381264,22.3922373 185.381264,24.4131322 C185.381264,26.3618523 185.727584,28.2203539 186.420224,29.9886369 C187.112864,31.7569199 188.098544,33.3086785 189.377264,34.6439127 C190.655984,35.9791468 192.201103,37.0347035 194.012623,37.8105828 C195.824143,38.5864621 197.848783,38.9744018 200.086543,38.9744018 Z M207.332622,21.8689699 L192.840463,21.8689699 C192.911503,20.822435 193.151263,19.8661187 193.559743,19.0000209 C193.968223,18.133923 194.492143,17.3941312 195.131503,16.7806452 C195.770863,16.1671592 196.507903,15.6890011 197.342623,15.3461707 C198.177343,15.0033403 199.074223,14.8319251 200.033263,14.8319251 C201.986863,14.8319251 203.647422,15.4724766 205.014942,16.7535796 C206.382462,18.0346827 207.155022,19.7398127 207.332622,21.8689699 L207.332622,21.8689699 Z M226.193741,38.4330906 L226.193741,21.8689699 C226.72654,20.1006868 227.62342,18.6752342 228.88438,17.5926119 C230.14534,16.5099896 231.46846,15.9686785 232.85374,15.9686785 C234.2035,15.9686785 235.26022,16.4919459 236.0239,17.5384808 C236.78758,18.5850157 237.16942,20.2450365 237.16942,22.5185432 L237.16942,22.5185432 L237.16942,38.4330906 L244.308939,38.4330906 L244.308939,21.923101 C244.841739,20.1548179 245.729739,18.7203434 246.972939,17.6196775 C248.216139,16.5190115 249.548139,15.9686785 250.968938,15.9686785 C252.318698,15.9686785 253.375418,16.4919459 254.139098,17.5384808 C254.902778,18.5850157 255.284618,20.2450365 255.284618,22.5185432 L255.284618,22.5185432 L255.284618,38.4330906 L262.424137,38.4330906 L262.424137,20.7322165 C262.424137,19.3608949 262.308697,18.0076171 262.077817,16.672383 C261.846937,15.3371488 261.429577,14.1462643 260.825738,13.0997295 C260.221898,12.0531946 259.369418,11.2051405 258.268298,10.5555671 C257.167178,9.90599378 255.764138,9.5812071 254.059178,9.5812071 C251.821418,9.5812071 249.832298,10.0954527 248.091819,11.1239438 C246.351339,12.152435 244.912779,13.6410406 243.776139,15.5897607 C243.420939,13.8936525 242.603979,12.4681998 241.325259,11.3134027 C240.046539,10.1586056 238.235019,9.5812071 235.8907,9.5812071 C233.5819,9.5812071 231.53062,10.077409 229.73686,11.0698127 C227.9431,12.0622165 226.53118,13.4786473 225.501101,15.3191051 L225.501101,15.3191051 L225.501101,10.0683871 L219.054221,10.0683871 L219.054221,38.4330906 L226.193741,38.4330906 Z M283.320396,39.1628131 C285.549743,32.6973851 288.893762,22.9992431 293.352455,10.0683871 L286.639175,10.0683871 L279.925896,32.1538814 L272.360137,10.0683871 L265.007497,10.0683871 L276.036456,38.4330906 C276.036456,40.3328049 275.906638,42.257806 271.836483,42.257806 L271.836483,48.9031276 C279.179976,48.6594821 281.545234,44.5394279 283.320396,39.1628131 Z" id="Educademy" fill="#3C3C3C" fill-rule="nonzero"></path>
                        <ellipse id="Oval" fill="#1ABC9C" cx="294.137255" cy="34.0440814" rx="4.31999963" ry="4.38900921"></ellipse>
                    </g>
                </g>
            </g>
        </g>
    </g>
</svg>