<?xml version="1.0" encoding="UTF-8"?>
<svg width="20px" height="20px" viewBox="0 0 20 20" version="1.1" xmlns="http://www.w3.org/2000/svg" xmlns:xlink="http://www.w3.org/1999/xlink">
    <title>circle-phone</title>
    <g id="Page-1" stroke="none" stroke-width="1" fill="none" fill-rule="evenodd">
        <g id="circle-phone" transform="translate(0.5, 0.375)" fill="#1ABC9C" fill-rule="nonzero">
            <path d="M13.7119141,10.2533199 L11.9340038,9.49146444 C11.3710541,9.2566362 10.7105076,9.42247835 10.3290233,9.89039022 L10.0796856,10.1942413 C9.57792991,9.85253906 9.14746094,9.42207009 8.8097654,8.92109352 L9.11651173,8.66945463 C9.59373832,8.27535325 9.75145316,7.62816566 9.50801575,7.05853653 L8.74667957,5.28808594 C8.48168129,4.67503834 7.81671873,4.34179688 7.16656232,4.48949146 L5.52558571,4.86875045 C4.89472634,5.01347679 4.453125,5.53300804 4.453125,6.21582031 C4.453125,10.8099605 8.19003895,14.546875 12.7841797,14.546875 C13.4317387,14.546875 13.9861529,14.1060154 14.131621,13.4751561 L14.5101371,11.831953 C14.6619143,11.1810542 14.2908205,10.5205078 13.7119141,10.2533199 Z M12.9771489,13.2072263 C12.954883,13.2999998 12.8769531,13.359375 12.7841797,13.359375 C8.84687477,13.359375 5.640625,10.1531252 5.640625,6.21582031 C5.640625,6.12419748 5.70092773,6.04882812 5.79255056,6.02797222 L7.43464041,5.64685935 C7.44785145,5.640625 7.46269554,5.640625 7.47753906,5.640625 C7.55405846,5.640625 7.62657055,5.68641829 7.65729666,5.7565918 L8.41581237,7.52670887 C8.45118111,7.60961097 8.43030709,7.69718912 8.36189234,7.7534098 L7.65566418,8.33105469 C7.43671852,8.5128904 7.3736327,8.82460949 7.51093727,9.07324219 C8.0675779,10.0967183 8.90365207,10.9320506 9.92787105,11.490176 C10.1795099,11.6270349 10.4908208,11.5643947 10.6711718,11.3452265 L11.2493353,10.6394066 C11.3015113,10.5750586 11.3971794,10.5530159 11.472585,10.5831491 L13.241218,11.3416649 C13.3276087,11.3799248 13.375146,11.4738489 13.3542901,11.5643211 L12.9771489,13.2072263 Z M9.5,0 C4.2527346,0 0,4.2527346 0,9.5 C0,14.7472654 4.2527346,19 9.5,19 C14.7472654,19 19,14.7472654 19,9.5 C19,4.2527346 14.7472654,0 9.5,0 Z M9.5,17.8125 C4.91699219,17.8125 1.1875,14.0830078 1.1875,9.5 C1.1875,4.91699219 4.91699219,1.1875 9.5,1.1875 C14.0830078,1.1875 17.8125,4.91699219 17.8125,9.5 C17.8125,14.0830078 14.0830078,17.8125 9.5,17.8125 Z" id="Shape"></path>
        </g>
    </g>
</svg>